<?xml version="1.0"?>
<!DOCTYPE svg PUBLIC "-//W3C//DTD SVG 1.1//EN" "http://www.w3.org/Graphics/SVG/1.1/DTD/svg11.dtd">

<svg xmlns="http://www.w3.org/2000/svg" width="1000" height="1000">
<circle cx="148" cy="19" r="2" fill="#008000"/>
<circle cx="426" cy="79" r="2" fill="#008000"/>
<circle cx="995" cy="316" r="2" fill="#008000"/>
<circle cx="615" cy="128" r="2" fill="#008000"/>
<circle cx="786" cy="492" r="2" fill="#008000"/>
<circle cx="302" cy="328" r="2" fill="#008000"/>
<circle cx="902" cy="640" r="2" fill="#008000"/>
<circle cx="609" cy="672" r="2" fill="#008000"/>
<circle cx="527" cy="31" r="2" fill="#008000"/>
<circle cx="809" cy="953" r="2" fill="#008000"/>
<circle cx="984" cy="357" r="2" fill="#008000"/>
<circle cx="478" cy="307" r="2" fill="#008000"/>
<circle cx="722" cy="828" r="2" fill="#008000"/>
<circle cx="550" cy="265" r="2" fill="#008000"/>
<circle cx="679" cy="106" r="2" fill="#008000"/>
<circle cx="235" cy="86" r="2" fill="#008000"/>
<circle cx="924" cy="765" r="2" fill="#008000"/>
<circle cx="611" cy="18" r="2" fill="#008000"/>
<circle cx="955" cy="968" r="2" fill="#008000"/>
<circle cx="943" cy="318" r="2" fill="#008000"/>
<circle cx="378" cy="889" r="2" fill="#008000"/>
<circle cx="599" cy="425" r="2" fill="#008000"/>
<circle cx="716" cy="489" r="2" fill="#008000"/>
<circle cx="264" cy="381" r="2" fill="#008000"/>
<circle cx="147" cy="89" r="2" fill="#008000"/>
<circle cx="742" cy="853" r="2" fill="#008000"/>
<circle cx="742" cy="489" r="2" fill="#008000"/>
<circle cx="25" cy="828" r="2" fill="#008000"/>
<circle cx="815" cy="732" r="2" fill="#008000"/>
<circle cx="985" cy="574" r="2" fill="#008000"/>
<circle cx="449" cy="607" r="2" fill="#008000"/>
<circle cx="653" cy="665" r="2" fill="#008000"/>
<circle cx="712" cy="661" r="2" fill="#008000"/>
<circle cx="360" cy="363" r="2" fill="#008000"/>
<circle cx="441" cy="232" r="2" fill="#008000"/>
<circle cx="992" cy="226" r="2" fill="#008000"/>
<circle cx="399" cy="126" r="2" fill="#008000"/>
<circle cx="53" cy="961" r="2" fill="#008000"/>
<circle cx="315" cy="98" r="2" fill="#008000"/>
<circle cx="424" cy="273" r="2" fill="#008000"/>
<circle cx="899" cy="720" r="2" fill="#008000"/>
<circle cx="1000" cy="95" r="2" fill="#008000"/>
<circle cx="754" cy="76" r="2" fill="#008000"/>
<circle cx="84" cy="192" r="2" fill="#008000"/>
<circle cx="964" cy="562" r="2" fill="#008000"/>
<circle cx="371" cy="585" r="2" fill="#008000"/>
<circle cx="848" cy="889" r="2" fill="#008000"/>
<circle cx="989" cy="461" r="2" fill="#008000"/>
<circle cx="308" cy="374" r="2" fill="#008000"/>
<circle cx="175" cy="124" r="2" fill="#008000"/>
<circle cx="372" cy="672" r="2" fill="#008000"/>
<circle cx="107" cy="904" r="2" fill="#008000"/>
<circle cx="755" cy="684" r="2" fill="#008000"/>
<circle cx="709" cy="882" r="2" fill="#008000"/>
<circle cx="282" cy="407" r="2" fill="#008000"/>
<circle cx="385" cy="379" r="2" fill="#008000"/>
<circle cx="837" cy="601" r="2" fill="#008000"/>
<circle cx="574" cy="713" r="2" fill="#008000"/>
<circle cx="130" cy="886" r="2" fill="#008000"/>
<circle cx="347" cy="264" r="2" fill="#008000"/>
<circle cx="749" cy="595" r="2" fill="#008000"/>
<circle cx="870" cy="651" r="2" fill="#008000"/>
<circle cx="666" cy="106" r="2" fill="#008000"/>
<circle cx="628" cy="285" r="2" fill="#008000"/>
<circle cx="102" cy="616" r="2" fill="#008000"/>
<circle cx="415" cy="570" r="2" fill="#008000"/>
<circle cx="203" cy="375" r="2" fill="#008000"/>
<circle cx="396" cy="333" r="2" fill="#008000"/>
<circle cx="996" cy="110" r="2" fill="#008000"/>
<circle cx="472" cy="341" r="2" fill="#008000"/>
<circle cx="60" cy="597" r="2" fill="#008000"/>
<circle cx="644" cy="923" r="2" fill="#008000"/>
<circle cx="837" cy="56" r="2" fill="#008000"/>
<circle cx="170" cy="8" r="2" fill="#008000"/>
<circle cx="878" cy="809" r="2" fill="#008000"/>
<circle cx="492" cy="606" r="2" fill="#008000"/>
<circle cx="284" cy="803" r="2" fill="#008000"/>
<circle cx="774" cy="283" r="2" fill="#008000"/>
<circle cx="982" cy="73" r="2" fill="#008000"/>
<circle cx="157" cy="145" r="2" fill="#008000"/>
<circle cx="560" cy="925" r="2" fill="#008000"/>
<circle cx="169" cy="121" r="2" fill="#008000"/>
<circle cx="84" cy="315" r="2" fill="#008000"/>
<circle cx="210" cy="580" r="2" fill="#008000"/>
<circle cx="199" cy="82" r="2" fill="#008000"/>
<circle cx="852" cy="528" r="2" fill="#008000"/>
<circle cx="159" cy="315" r="2" fill="#008000"/>
<circle cx="421" cy="937" r="2" fill="#008000"/>
<circle cx="960" cy="425" r="2" fill="#008000"/>
<circle cx="869" cy="659" r="2" fill="#008000"/>
<circle cx="856" cy="455" r="2" fill="#008000"/>
<circle cx="304" cy="342" r="2" fill="#008000"/>
<circle cx="310" cy="36" r="2" fill="#008000"/>
<circle cx="724" cy="292" r="2" fill="#008000"/>
<circle cx="963" cy="764" r="2" fill="#008000"/>
<circle cx="296" cy="150" r="2" fill="#008000"/>
<circle cx="928" cy="681" r="2" fill="#008000"/>
<circle cx="734" cy="493" r="2" fill="#008000"/>
<circle cx="436" cy="139" r="2" fill="#008000"/>
<circle cx="712" cy="227" r="2" fill="#008000"/>
<circle cx="25" cy="828" r="2" fill="#ff0000"/>
<circle cx="1000" cy="95" r="2" fill="#ff0000"/>
<circle cx="148" cy="19" r="2" fill="#ff0000"/>
<circle cx="84" cy="192" r="2" fill="#ff0000"/>
<circle cx="611" cy="18" r="2" fill="#ff0000"/>
<circle cx="170" cy="8" r="2" fill="#ff0000"/>
<circle cx="982" cy="73" r="2" fill="#ff0000"/>
<circle cx="955" cy="968" r="2" fill="#ff0000"/>
<circle cx="985" cy="574" r="2" fill="#ff0000"/>
<circle cx="995" cy="316" r="2" fill="#ff0000"/>
<circle cx="53" cy="961" r="2" fill="#ff0000"/>
</svg>
