<?xml version="1.0"?>
<!DOCTYPE svg PUBLIC "-//W3C//DTD SVG 1.1//EN" "http://www.w3.org/Graphics/SVG/1.1/DTD/svg11.dtd">

<svg xmlns="http://www.w3.org/2000/svg" width="1000" height="1000">
<circle cx="352" cy="581" r="2" fill="#008000"/>
<circle cx="448" cy="679" r="2" fill="#008000"/>
<circle cx="983" cy="122" r="2" fill="#008000"/>
<circle cx="278" cy="213" r="2" fill="#008000"/>
<circle cx="375" cy="252" r="2" fill="#008000"/>
<circle cx="212" cy="532" r="2" fill="#008000"/>
<circle cx="868" cy="823" r="2" fill="#008000"/>
<circle cx="949" cy="610" r="2" fill="#008000"/>
<circle cx="31" cy="20" r="2" fill="#008000"/>
<circle cx="888" cy="967" r="2" fill="#008000"/>
<circle cx="593" cy="197" r="2" fill="#008000"/>
<circle cx="325" cy="119" r="2" fill="#008000"/>
<circle cx="168" cy="859" r="2" fill="#008000"/>
<circle cx="146" cy="54" r="2" fill="#008000"/>
<circle cx="478" cy="500" r="2" fill="#008000"/>
<circle cx="63" cy="447" r="2" fill="#008000"/>
<circle cx="260" cy="495" r="2" fill="#008000"/>
<circle cx="195" cy="824" r="2" fill="#008000"/>
<circle cx="253" cy="704" r="2" fill="#008000"/>
<circle cx="321" cy="452" r="2" fill="#008000"/>
<circle cx="966" cy="18" r="2" fill="#008000"/>
<circle cx="425" cy="62" r="2" fill="#008000"/>
<circle cx="519" cy="266" r="2" fill="#008000"/>
<circle cx="338" cy="419" r="2" fill="#008000"/>
<circle cx="346" cy="381" r="2" fill="#008000"/>
<circle cx="931" cy="895" r="2" fill="#008000"/>
<circle cx="971" cy="272" r="2" fill="#008000"/>
<circle cx="867" cy="350" r="2" fill="#008000"/>
<circle cx="920" cy="797" r="2" fill="#008000"/>
<circle cx="554" cy="772" r="2" fill="#008000"/>
<circle cx="617" cy="259" r="2" fill="#008000"/>
<circle cx="557" cy="81" r="2" fill="#008000"/>
<circle cx="462" cy="144" r="2" fill="#008000"/>
<circle cx="867" cy="22" r="2" fill="#008000"/>
<circle cx="255" cy="653" r="2" fill="#008000"/>
<circle cx="193" cy="713" r="2" fill="#008000"/>
<circle cx="970" cy="712" r="2" fill="#008000"/>
<circle cx="481" cy="512" r="2" fill="#008000"/>
<circle cx="297" cy="213" r="2" fill="#008000"/>
<circle cx="807" cy="617" r="2" fill="#008000"/>
<circle cx="605" cy="882" r="2" fill="#008000"/>
<circle cx="727" cy="660" r="2" fill="#008000"/>
<circle cx="359" cy="189" r="2" fill="#008000"/>
<circle cx="713" cy="692" r="2" fill="#008000"/>
<circle cx="815" cy="583" r="2" fill="#008000"/>
<circle cx="726" cy="914" r="2" fill="#008000"/>
<circle cx="709" cy="86" r="2" fill="#008000"/>
<circle cx="433" cy="692" r="2" fill="#008000"/>
<circle cx="186" cy="184" r="2" fill="#008000"/>
<circle cx="890" cy="206" r="2" fill="#008000"/>
<circle cx="738" cy="67" r="2" fill="#008000"/>
<circle cx="5" cy="430" r="2" fill="#008000"/>
<circle cx="342" cy="683" r="2" fill="#008000"/>
<circle cx="595" cy="900" r="2" fill="#008000"/>
<circle cx="16" cy="691" r="2" fill="#008000"/>
<circle cx="774" cy="533" r="2" fill="#008000"/>
<circle cx="740" cy="856" r="2" fill="#008000"/>
<circle cx="382" cy="116" r="2" fill="#008000"/>
<circle cx="463" cy="829" r="2" fill="#008000"/>
<circle cx="90" cy="347" r="2" fill="#008000"/>
<circle cx="247" cy="524" r="2" fill="#008000"/>
<circle cx="833" cy="413" r="2" fill="#008000"/>
<circle cx="269" cy="196" r="2" fill="#008000"/>
<circle cx="438" cy="653" r="2" fill="#008000"/>
<circle cx="229" cy="521" r="2" fill="#008000"/>
<circle cx="965" cy="518" r="2" fill="#008000"/>
<circle cx="76" cy="985" r="2" fill="#008000"/>
<circle cx="597" cy="844" r="2" fill="#008000"/>
<circle cx="133" cy="784" r="2" fill="#008000"/>
<circle cx="99" cy="793" r="2" fill="#008000"/>
<circle cx="222" cy="33" r="2" fill="#008000"/>
<circle cx="1000" cy="184" r="2" fill="#008000"/>
<circle cx="954" cy="193" r="2" fill="#008000"/>
<circle cx="865" cy="624" r="2" fill="#008000"/>
<circle cx="545" cy="90" r="2" fill="#008000"/>
<circle cx="225" cy="340" r="2" fill="#008000"/>
<circle cx="100" cy="500" r="2" fill="#008000"/>
<circle cx="401" cy="469" r="2" fill="#008000"/>
<circle cx="15" cy="389" r="2" fill="#008000"/>
<circle cx="43" cy="7" r="2" fill="#008000"/>
<circle cx="566" cy="666" r="2" fill="#008000"/>
<circle cx="736" cy="142" r="2" fill="#008000"/>
<circle cx="559" cy="884" r="2" fill="#008000"/>
<circle cx="939" cy="959" r="2" fill="#008000"/>
<circle cx="873" cy="395" r="2" fill="#008000"/>
<circle cx="265" cy="69" r="2" fill="#008000"/>
<circle cx="515" cy="286" r="2" fill="#008000"/>
<circle cx="398" cy="446" r="2" fill="#008000"/>
<circle cx="469" cy="309" r="2" fill="#008000"/>
<circle cx="159" cy="540" r="2" fill="#008000"/>
<circle cx="43" cy="91" r="2" fill="#008000"/>
<circle cx="32" cy="978" r="2" fill="#008000"/>
<circle cx="175" cy="43" r="2" fill="#008000"/>
<circle cx="721" cy="203" r="2" fill="#008000"/>
<circle cx="831" cy="694" r="2" fill="#008000"/>
<circle cx="866" cy="706" r="2" fill="#008000"/>
<circle cx="859" cy="179" r="2" fill="#008000"/>
<circle cx="269" cy="179" r="2" fill="#008000"/>
<circle cx="975" cy="531" r="2" fill="#008000"/>
<circle cx="181" cy="221" r="2" fill="#008000"/>
<circle cx="5" cy="430" r="2" fill="#ff0000"/>
<circle cx="1000" cy="184" r="2" fill="#ff0000"/>
<circle cx="43" cy="7" r="2" fill="#ff0000"/>
<circle cx="31" cy="20" r="2" fill="#ff0000"/>
<circle cx="966" cy="18" r="2" fill="#ff0000"/>
<circle cx="939" cy="959" r="2" fill="#ff0000"/>
<circle cx="970" cy="712" r="2" fill="#ff0000"/>
<circle cx="32" cy="978" r="2" fill="#ff0000"/>
<circle cx="76" cy="985" r="2" fill="#ff0000"/>
<circle cx="888" cy="967" r="2" fill="#ff0000"/>
<circle cx="16" cy="691" r="2" fill="#ff0000"/>
</svg>
